<svg xmlns="http://www.w3.org/2000/svg" xmlns:xlink="http://www.w3.org/1999/xlink" width="234.276" height="256.263" viewBox="0 0 234.276 256.263">
  <defs>
    <linearGradient id="linear-gradient" x1="0.5" x2="0.5" y2="1" gradientUnits="objectBoundingBox">
      <stop offset="0" stop-color="#3a0135"/>
      <stop offset="1" stop-color="#3a0135"/>
    </linearGradient>
  </defs>
  <path id="Wikimania2019_leaves_stem_icon" d="M180.026,52.813c-.362-6.181-3.032-24.657-21.87-30.395-13.447-4.076-33.406-1.529-33.406-1.529s7.735,18.757,16.082,27.119c8.662,8.662,18.889,10.145,26.747,9.605l-.25.1c-8.041,3.057-14.986,5.738-19.832,7.878s-9.442,4.428-13.89,6.848c-2.4-5.778-10.971-22.252-30.573-21.519-14.048.51-32.077,9.462-32.077,9.462S84.377,75.6,95.022,80.762a32.311,32.311,0,0,0,20.775,2.7,185.767,185.767,0,0,0-23.251,19.363C88.831,96.712,78.5,83.463,60.1,86.225,46.069,88.35,29.014,99.213,29.014,99.213s15.169,13.442,26.42,17.325a33.738,33.738,0,0,0,25.7-1.488,207.539,207.539,0,0,0-18.319,25c-5.789-4.851-19.2-13.371-35.812-5.89C13.758,140.1,0,155.091,0,155.091s18.624,8.347,30.757,8.815a35.5,35.5,0,0,0,22.283-6.65c-3.322,6.517-6.191,12.887-8.662,18.966-7.516,4.637-18.283,13.906-19.3,29.391-.922,14.2,6.115,31.913,6.115,31.913s16.51-14.482,22.741-25.539c8.775-15.6,3.98-28.887.438-35.312,1.824-4.331,3.873-8.8,6.145-13.35a31.338,31.338,0,0,0,7.761,17.549c7.75,8.866,26.048,17.834,26.048,17.834s4.194-19.5,1.152-33.06c-3.338-14.894-15.373-20.561-23.409-22.711A196.75,196.75,0,0,1,88.994,120.3a32.662,32.662,0,0,0,4.464,23.134c6.222,10.084,22.721,21.891,22.721,21.891s7.042-18.854,6.115-32.907c-1.019-15.48-11.99-23.006-19.511-26.369a174.61,174.61,0,0,1,27.083-20.6c-3.949,7.246-7.735,18.894-1.977,31.893,4.831,10.894,19.516,24.866,19.516,24.866s9.315-17.987,10.191-32.178c1.085-17.325-11.078-26.466-17.921-30.206q5.605-2.971,11.592-5.646c4.3-1.89,10.5-4.285,17.687-7.037a34.442,34.442,0,0,0-9,26.186c1.019,11.873,10.318,29.875,10.318,29.875s7.821-14.958,13.3-28.079C190.293,79.007,186.987,66.709,180.026,52.813Z" transform="matrix(0.97, 0.242, -0.242, 0.97, 57.463, -19.506)" opacity="0.22" fill="url(#linear-gradient)"/>
</svg>
