<svg xmlns="http://www.w3.org/2000/svg" width="173.511" height="121" viewBox="0 0 173.511 121">
  <text id="easy" transform="translate(9.5 57)" fill="#fff" font-size="60" font-family="ScriptMTBold, Script MT" opacity="0.98"><tspan x="0" y="0">easy</tspan></text>
  <text id="words" transform="translate(7.5 106)" fill="#fff" font-size="60" font-family="ScriptMTBold, Script MT"><tspan x="0" y="0">words</tspan></text>
  <line id="Line_1" data-name="Line 1" x2="77" transform="translate(2.5 70)" fill="none" stroke="#fff" stroke-width="4"/>
  <line id="Line_2" data-name="Line 2" y2="39" transform="translate(2.5 33)" fill="none" stroke="#fff" stroke-width="5"/>
  <g id="layer1" transform="translate(-501.923 -367.842)">
    <g id="g132" transform="translate(626.955 376.525)">
      <path id="path134" d="M12.513,48.817c-3.6-.256-5.48-1.553-6.447-2.993A39.912,39.912,0,0,1,8.3,33.992a16.742,16.742,0,0,1,3.6-5.832,33.356,33.356,0,0,1,4.7-4.326,27.472,27.472,0,0,1,6.517-3.559c.849-.328,2.372-.944,4.215-1.629a34.089,34.089,0,0,0,5.96-2.652A66.978,66.978,0,0,0,40.4,11.462a70.569,70.569,0,0,1-7.453,3.5,35.941,35.941,0,0,1-6.018,1.876,44.3,44.3,0,0,0-4.384,1.327C20.893,18.854,11,22.019,5.95,32.629a38.026,38.026,0,0,0-2.324,8.14,5.784,5.784,0,0,1-2.951-4.2C0,32.545.376,20.474,11.314,13.768s23.153-5.365,29-7.331A14.885,14.885,0,0,0,48.479,0S43.608,45.509,12.513,48.817Z" fill="#bd0060"/>
    </g>
  </g>
</svg>
